<?xml version="1.0" standalone="no"?>
<!DOCTYPE svg PUBLIC "-//W3C//DTD SVG 20010904//EN"
 "http://www.w3.org/TR/2001/REC-SVG-20010904/DTD/svg10.dtd">
<svg version="1.0" xmlns="http://www.w3.org/2000/svg"
 width="568.000000pt" height="235.000000pt" viewBox="0 0 568.000000 235.000000"
 preserveAspectRatio="xMidYMid meet">
<metadata>
Created by potrace 1.16, written by Peter Selinger 2001-2019
</metadata>
<g transform="translate(0.000000,235.000000) scale(0.100000,-0.100000)"
fill="#000000" stroke="none">
<path d="M2712 2187 c-64 -68 26 -167 99 -108 17 13 23 29 23 56 0 68 -77 100
-122 52z"/>
<path d="M4680 1008 c-61 -17 -101 -66 -114 -140 -6 -35 -9 -38 -41 -38 -31 0
-35 -3 -35 -25 0 -22 4 -25 38 -25 l37 0 0 -257 0 -258 28 -3 27 -3 0 260 0
261 75 0 c73 0 75 1 75 25 0 24 -2 25 -76 25 l-76 0 7 37 c4 21 11 46 17 56
11 22 67 47 103 47 20 0 25 5 25 25 0 21 -5 25 -27 24 -16 0 -44 -5 -63 -11z"/>
<path d="M2365 999 c-100 -29 -137 -191 -63 -275 30 -34 68 -51 305 -134 154
-53 177 -74 176 -155 -1 -60 -5 -74 -28 -99 l-24 -26 -228 0 -229 0 -2 -25 -2
-25 230 0 c248 0 284 6 314 52 25 38 39 114 31 165 -12 80 -50 107 -250 177
-261 91 -265 94 -265 190 0 112 9 116 275 116 l205 0 0 25 0 25 -207 -1 c-115
0 -222 -5 -238 -10z"/>
<path d="M2950 545 l0 -285 25 0 25 0 0 285 0 285 -25 0 -25 0 0 -285z"/>
<path d="M3152 824 c-36 -16 -42 -57 -42 -314 l0 -250 30 0 30 0 2 258 3 257
148 3 147 3 0 -261 0 -260 25 0 25 0 0 260 0 260 116 0 c115 0 147 -7 171 -39
9 -12 12 -82 13 -248 l0 -233 30 0 30 0 0 225 c0 246 -6 282 -58 320 -25 19
-44 20 -342 22 -173 1 -321 0 -328 -3z"/>
<path d="M4005 805 l-25 -24 0 -351 0 -350 30 0 30 0 0 90 0 90 108 0 c118 0
159 8 208 42 47 32 73 85 84 170 17 134 0 225 -53 285 -53 60 -94 73 -235 73
-117 0 -124 -1 -147 -25z m312 -51 c51 -37 66 -84 66 -203 0 -86 -4 -115 -21
-154 -31 -69 -74 -86 -214 -87 l-108 0 0 228 c0 126 3 232 7 236 5 4 60 6 125
4 99 -3 121 -6 145 -24z"/>
<path d="M4942 811 c-66 -23 -94 -49 -123 -114 -20 -44 -24 -69 -24 -157 1
-92 4 -112 27 -161 39 -85 98 -118 224 -126 217 -14 312 84 302 316 -3 81 -8
104 -31 146 -30 54 -72 87 -133 104 -61 17 -182 13 -242 -8z m268 -57 c57 -33
74 -74 78 -191 8 -191 -35 -250 -185 -260 -121 -8 -193 20 -229 89 -24 47 -30
192 -10 261 28 98 85 128 227 124 63 -2 94 -8 119 -23z"/>
</g>
</svg>
